<?xml version="1.0" encoding="utf-8"?>
<!-- Generator: Adobe Illustrator 23.0.1, SVG Export Plug-In . SVG Version: 6.00 Build 0)  -->
<svg version="1.1" xmlns="http://www.w3.org/2000/svg" xmlns:xlink="http://www.w3.org/1999/xlink" x="0px" y="0px"
	 viewBox="0 0 960 560" style="enable-background:new 0 0 960 560;" xml:space="preserve">
<style type="text/css">
	.st0{fill:#2E2E6E;}
	.st1{fill:#3C92FF;}
	.st2{fill:#00DADA;}
</style>
<g id="Laag_1">
	<path class="st0" d="M380.85,387.2c1.55,0,2.92-0.34,4.16-0.84v3.36c-1.44,0.57-3.06,0.94-4.84,0.94c-5.1,0-7.92-3.06-7.92-8.63
		c0-5.57,2.82-8.66,7.92-8.66c1.78,0,3.39,0.37,4.84,0.94v3.36c-1.24-0.5-2.62-0.81-4.16-0.81c-2.82,0-4.57,0.84-4.57,5.17
		C376.28,386.32,378.03,387.2,380.85,387.2 M400.4,373.63l-3.7,11.69l-3.76-11.69h-4.27l6.01,15.88c-0.57,1.58-1.74,4.06-3.22,4.06
		c-0.71,0-1.34-0.17-1.92-0.4v3.36c0.74,0.27,1.58,0.47,2.55,0.47c1.74,0,4.16-0.74,6.18-6.21l6.38-17.16H400.4z M419.74,381.62
		c0,3.83-0.88,5.57-3.46,5.57c-1.78,0-3.03-0.4-3.03-1.81v-8.56c0.71-0.17,1.58-0.27,2.62-0.27
		C418.2,376.55,419.74,377.66,419.74,381.62 M423.81,381.82c0-5.47-2.79-8.46-7.79-8.46c-0.94,0-1.85,0.1-2.75,0.27v-6.41h-4.03
		v17.79c0,2.72,1.85,5.64,7.05,5.64C418.53,390.65,423.81,389.78,423.81,381.82 M432.6,380.75c0.24-2.99,1.38-4.13,3.36-4.13
		c2.15,0,3.19,2.02,3.39,4.13H432.6 M442.57,385.89c-1.41,0.67-3.32,1.31-5.71,1.31c-1.95,0-4.03-0.44-4.27-3.66h10.78
		c0.07-0.67,0.07-1.34,0.07-2.08c0-4.2-2.25-8.12-7.49-8.12c-5.47,0-7.49,3.86-7.49,8.86c0,7.12,4.47,8.46,7.79,8.46
		c2.69,0,4.77-0.67,6.31-1.51V385.89 M457.02,373.36c-4.8,0.1-8.36,1.78-8.36,1.78v15.24h4.03v-12.96c0.57-0.17,2.08-0.54,4.33-0.57
		V373.36 M467.69,373.63c0-3.05,0.97-3.69,2.95-3.69c0.3,0,0.61,0.03,0.91,0.07v-3.15c-0.5-0.1-1.08-0.17-1.65-0.17
		c-3.19,0-6.21,1.41-6.25,6.95h-2.85v3.46h2.85v13.3h4.03v-13.3h3.86v-3.46H467.69 M486.54,373.63v9.71c0,2.68-1.01,3.79-3.53,3.79
		c-2.49,0-3.49-1.11-3.49-3.79v-9.71h-4.06v9.17c0,4.94,2.82,7.86,7.56,7.86c4.77,0,7.59-2.92,7.59-7.86v-9.17H486.54z
		 M507.68,385.75c0-6.85-7.99-4.93-7.99-7.52c0-1.08,1.21-1.41,2.89-1.41c1.58,0,2.85,0.34,3.86,0.81v-3.06
		c-1.27-0.74-2.82-1.21-4.57-1.21c-3.32,0-6.21,1.71-6.21,5.24c0,5.81,7.99,4.2,7.99,6.95c0,0.91-0.2,1.61-2.79,1.61
		c-1.91,0-3.53-0.67-4.74-1.48v3.59c1.41,0.81,3.19,1.38,5.3,1.38C505.26,390.65,507.68,388.54,507.68,385.75 M512.84,390.39h4.03
		v-16.76h-4.03V390.39z M512.77,371.35h4.13v-3.69h-4.13V371.35z M534.02,382.03c0,4.43-1.51,5.3-3.9,5.3c-2.39,0-3.9-0.87-3.9-5.3
		c0-4.43,1.51-5.31,3.9-5.31C532.5,376.72,534.02,377.6,534.02,382.03 M538.04,382.03c0-5.57-2.82-8.63-7.92-8.63
		s-7.92,3.06-7.92,8.63c0,5.57,2.82,8.63,7.92,8.63S538.04,387.6,538.04,382.03 M558.25,380.31c0-4.36-2.75-6.95-7.42-6.95
		c-4.27,0-7.56,1.78-7.69,1.85v15.18h4.03v-13.16c0.91-0.17,1.98-0.3,3.12-0.3c3.66,0,3.96,1.58,3.96,3.06v10.41h4V380.31"/>
</g>
<g id="Art">
	<g>
		<polygon class="st1" points="440.55,254.89 462.94,268.1 462.94,243.26 415.84,216.07 415.84,300.45 462.94,327.79 462.94,303.08 
			438.25,288.83 437.11,288.17 437.11,286.85 437.11,256.86 437.11,252.86 		"/>
		<polygon class="st1" points="514.6,216.07 467.51,243.26 467.51,268.12 514.6,240.63 		"/>
		<polygon class="st1" points="467.51,303.08 467.51,327.78 514.6,300.29 514.6,275.89 		"/>
	</g>
	<g>
		<polygon class="st2" points="465.22,214.91 464.08,214.26 439.39,200 418.13,212.27 465.22,239.31 512.31,212.27 491.05,200 
			466.36,214.26 		"/>
		<polygon class="st2" points="465.22,299.13 512.32,271.94 491.05,259.66 443.96,286.85 		"/>
	</g>
</g>
</svg>
