<?xml version="1.0" encoding="utf-8"?>
<!-- Generator: Adobe Illustrator 23.0.1, SVG Export Plug-In . SVG Version: 6.00 Build 0)  -->
<svg version="1.1" xmlns="http://www.w3.org/2000/svg" xmlns:xlink="http://www.w3.org/1999/xlink" x="0px" y="0px"
	 viewBox="0 0 960 560" style="enable-background:new 0 0 960 560;" xml:space="preserve">
<style type="text/css">
	.st0{fill:#2E2E6E;}
	.st1{fill:#3C92FF;}
	.st2{fill:#00DADA;}
</style>
<g id="Laag_1">
	<path class="st0" d="M397.64,289.9c1.68,0,3.18-0.37,4.54-0.91v3.65c-1.57,0.62-3.33,1.02-5.27,1.02c-5.56,0-8.63-3.33-8.63-9.39
		c0-6.07,3.07-9.43,8.63-9.43c1.94,0,3.7,0.4,5.27,1.02v3.65c-1.35-0.55-2.85-0.88-4.54-0.88c-3.07,0-4.97,0.91-4.97,5.63
		C392.66,288.95,394.56,289.9,397.64,289.9 M418.94,275.14l-4.03,12.72l-4.09-12.72h-4.65l6.55,17.29c-0.62,1.72-1.9,4.42-3.51,4.42
		c-0.77,0-1.46-0.18-2.09-0.44v3.65c0.8,0.29,1.72,0.51,2.78,0.51c1.9,0,4.54-0.8,6.73-6.76l6.95-18.68H418.94z M440.01,283.83
		c0,4.17-0.95,6.07-3.77,6.07c-1.94,0-3.3-0.44-3.3-1.97v-9.32c0.77-0.18,1.72-0.29,2.85-0.29
		C438.32,278.32,440.01,279.52,440.01,283.83 M444.43,284.05c0-5.96-3.04-9.21-8.49-9.21c-1.02,0-2.01,0.11-3,0.29v-6.98h-4.39
		v19.37c0,2.96,2.01,6.14,7.68,6.14C438.69,293.67,444.43,292.72,444.43,284.05 M454.01,282.89c0.26-3.25,1.5-4.5,3.66-4.5
		c2.34,0,3.48,2.19,3.7,4.5H454.01 M464.88,288.48c-1.54,0.73-3.62,1.43-6.22,1.43c-2.12,0-4.39-0.48-4.65-3.98h11.74
		c0.07-0.73,0.07-1.46,0.07-2.26c0-4.57-2.45-8.84-8.16-8.84c-5.96,0-8.16,4.2-8.16,9.65c0,7.75,4.87,9.21,8.49,9.21
		c2.92,0,5.2-0.73,6.88-1.65V288.48 M480.61,274.85c-5.23,0.11-9.11,1.94-9.11,1.94v16.59h4.39v-14.11
		c0.62-0.18,2.27-0.58,4.72-0.62V274.85 M492.23,275.14c0-3.32,1.06-4.02,3.22-4.02c0.33,0,0.66,0.04,0.99,0.07v-3.43
		c-0.55-0.11-1.17-0.19-1.79-0.19c-3.48,0-6.77,1.54-6.8,7.56h-3.11v3.76h3.11v14.47h4.39V278.9h4.21v-3.76H492.23 M512.76,275.14
		v10.56c0,2.92-1.1,4.13-3.84,4.13c-2.71,0-3.81-1.2-3.81-4.13v-10.56h-4.43v9.98c0,5.37,3.07,8.55,8.23,8.55
		c5.2,0,8.27-3.18,8.27-8.55v-9.98H512.76z M535.79,288.33c0-7.45-8.71-5.37-8.71-8.19c0-1.17,1.32-1.54,3.15-1.54
		c1.72,0,3.11,0.37,4.21,0.88v-3.33c-1.39-0.8-3.07-1.32-4.97-1.32c-3.62,0-6.77,1.86-6.77,5.7c0,6.32,8.71,4.57,8.71,7.56
		c0,0.99-0.22,1.76-3.04,1.76c-2.08,0-3.84-0.73-5.16-1.61v3.91c1.54,0.88,3.48,1.5,5.78,1.5
		C533.16,293.67,535.79,291.36,535.79,288.33 M541.41,293.37h4.39v-18.24h-4.39V293.37z M541.34,272.65h4.5v-4.02h-4.5V272.65z
		 M564.48,284.27c0,4.82-1.65,5.77-4.24,5.77c-2.6,0-4.24-0.95-4.24-5.77c0-4.82,1.65-5.78,4.24-5.78
		C562.83,278.5,564.48,279.45,564.48,284.27 M568.87,284.27c0-6.07-3.07-9.39-8.63-9.39c-5.56,0-8.63,3.33-8.63,9.39
		c0,6.06,3.07,9.39,8.63,9.39C565.8,293.67,568.87,290.34,568.87,284.27 M590.88,282.41c0-4.75-3-7.56-8.08-7.56
		c-4.65,0-8.23,1.94-8.38,2.01v16.52h4.39v-14.33c0.99-0.18,2.16-0.33,3.4-0.33c3.99,0,4.32,1.72,4.32,3.33v11.33h4.35V282.41"/>
</g>
<g id="Art">
	<g>
		<g>
			<polygon class="st1" points="358.31,283.79 363.23,286.69 363.23,281.23 352.88,275.26 352.88,293.79 363.23,299.8 
				363.23,294.37 357.8,291.24 357.55,291.1 357.55,290.81 357.55,284.22 357.55,283.34 			"/>
			<polygon class="st1" points="374.59,275.26 364.24,281.23 364.24,286.69 374.59,280.65 			"/>
			<polygon class="st1" points="364.24,294.37 364.24,299.8 374.59,293.76 374.59,288.4 			"/>
		</g>
		<g>
			<polygon class="st2" points="363.73,275 363.48,274.86 358.05,271.73 353.38,274.42 363.73,280.36 374.09,274.42 369.41,271.73 
				363.98,274.86 			"/>
			<polygon class="st2" points="363.73,293.5 374.09,287.53 369.41,284.83 359.06,290.81 			"/>
		</g>
	</g>
</g>
</svg>
